HIERARCHY
ROOT Hips
{
	OFFSET -3.958830 18.904000 13.208200
	CHANNELS 6 Xposition Yposition Zposition Zrotation Yrotation Xrotation 
	JOINT LHipJoint
	{
		OFFSET 0.000000 0.000000 0.000000
		CHANNELS 3 Zrotation Yrotation Xrotation
		JOINT LeftUpLeg
		{
			OFFSET 1.800000 -1.400000 0.085000
			CHANNELS 3 Zrotation Yrotation Xrotation
			JOINT LeftLeg
			{
				OFFSET 2.215000 -6.000000 0.000000
				CHANNELS 3 Zrotation Yrotation Xrotation
				JOINT LeftFoot
				{
					OFFSET 2.500000 -6.900000 0.000000
					CHANNELS 3 Zrotation Yrotation Xrotation
					JOINT LeftToeBase
					{
						OFFSET 0.200000 -0.500000 1.950000
						CHANNELS 3 Zrotation Yrotation Xrotation
						End Site
						{
							OFFSET 0.000000 0.000000 0.000000
						}
					}
				}
			}
		}
	}
	JOINT RHipJoint
	{
		OFFSET 0.000000 0.000000 0.000000
		CHANNELS 3 Zrotation Yrotation Xrotation
		JOINT RightUpLeg
		{
			OFFSET -1.800000 -1.400000 0.085000
			CHANNELS 3 Zrotation Yrotation Xrotation
			JOINT RightLeg
			{
				OFFSET -2.215000 -6.000000 0.000000
				CHANNELS 3 Zrotation Yrotation Xrotation
				JOINT RightFoot
				{
					OFFSET -2.500000 -6.900000 0.000000
					CHANNELS 3 Zrotation Yrotation Xrotation
					JOINT RightToeBase
					{
						OFFSET -0.200000 -0.500000 1.950000
						CHANNELS 3 Zrotation Yrotation Xrotation
						End Site
						{
							OFFSET 0.000000 0.000000 0.000000
						}
					}
				}
			}
		}
	}
	JOINT LowerBack
	{
		OFFSET 0.000000 0.000000 0.000000
		CHANNELS 3 Zrotation Yrotation Xrotation
		JOINT Spine
		{
			OFFSET -0.087000 1.940000 -0.288900
			CHANNELS 3 Zrotation Yrotation Xrotation
			JOINT Spine1
			{
				OFFSET 0.000000 1.950000 0.060000
				CHANNELS 3 Zrotation Yrotation Xrotation
				JOINT Neck
				{
					OFFSET 0.000000 0.000000 0.000000
					CHANNELS 3 Zrotation Yrotation Xrotation
					JOINT Neck1
					{
						OFFSET 0.000000 1.600000 0.340000
						CHANNELS 3 Zrotation Yrotation Xrotation
						JOINT Head
						{
							OFFSET 0.000000 1.667000 -0.240000
							CHANNELS 3 Zrotation Yrotation Xrotation
							End Site
							{
								OFFSET 0.000000 0.000000 0.000000
							}
						}
					}
				}
				JOINT LeftShoulder
				{
					OFFSET 0.000000 0.000000 0.000000
					CHANNELS 3 Zrotation Yrotation Xrotation
					JOINT LeftArm
					{
						OFFSET 2.700000 1.550000 -0.730000
						CHANNELS 3 Zrotation Yrotation Xrotation
						JOINT LeftForeArm
						{
							OFFSET 5.450000 0.000000 0.000000
							CHANNELS 3 Zrotation Yrotation Xrotation
							JOINT LeftHand
							{
								OFFSET 3.450000 0.000000 0.000000
								CHANNELS 3 Zrotation Yrotation Xrotation
								JOINT LeftHandIndex1
								{
									OFFSET 0.750000 0.000000 0.000000
									CHANNELS 3 Zrotation Yrotation Xrotation
									End Site
									{
										OFFSET 0.000000 0.000000 0.000000
									}
								}
							}
						}
					}
				}
				JOINT RightShoulder
				{
					OFFSET 0.000000 0.000000 0.000000
					CHANNELS 3 Zrotation Yrotation Xrotation
					JOINT RightArm
					{
						OFFSET -2.700000 1.550000 -0.730000
						CHANNELS 3 Zrotation Yrotation Xrotation
						JOINT RightForeArm
						{
							OFFSET -5.450000 0.000000 0.000000
							CHANNELS 3 Zrotation Yrotation Xrotation
							JOINT RightHand
							{
								OFFSET -3.450000 0.000000 0.000000
								CHANNELS 3 Zrotation Yrotation Xrotation
								JOINT RightHandIndex1
								{
									OFFSET -0.750000 0.000000 0.000000
									CHANNELS 3 Zrotation Yrotation Xrotation
									End Site
									{
										OFFSET 0.000000 0.000000 0.000000
									}
								}
							}
						}
					}
				}
			}
		}
	}
}
MOTION
Frames: 13
Frame Time: 0.016667
-0.368220 17.202710 -3.247030 2.076403 14.350622 -3.026769 -13.882652 10.061265 2.404135 -2.961734 -2.612753 -10.422346 -10.718418 5.340649 12.786587 -0.710249 3.450976 3.463378 1.017290 1.121530 0.215410 19.723810 -12.427340 3.766459 -17.429060 4.966686 -23.216759 26.921849 -15.138667 31.779310 -1.359437 -7.584259 1.401977 0.732480 0.270890 0.210660 -7.746306 6.551554 -8.825488 32.135639 -6.249109 25.190541 -26.456029 2.204150 27.057343 5.748449 -11.550421 -10.197617 -17.693572 1.328219 36.655516 16.835650 -11.401700 -35.047310 -1.417382 -34.821258 13.794417 -9.123724 -10.789895 -5.580592 33.603278 -10.278613 -5.749222 -3.600875 3.152296 0.561820 -0.205790 0.241390 0.391300 -4.888945 41.329110 -3.467155 25.851811 54.739379 2.966017 -55.108420 69.901798 -37.426562 2.644319 0.450581 0.056250 0.650770 -0.094280 0.185760 
-0.367310 17.190190 -3.219880 2.443846 15.265950 -3.057871 -13.907972 10.035957 2.375351 -2.980080 -2.447329 -9.807107 -11.166330 5.449996 12.379432 -0.686974 3.532136 3.454543 0.968700 1.057580 0.178110 19.718227 -12.341110 3.785485 -18.330369 5.009992 -23.213203 27.747950 -15.511628 31.821051 -1.367445 -7.719362 1.364666 0.699200 0.293840 0.197140 -7.714943 6.449371 -8.832609 31.701558 -5.965782 24.722840 -26.683812 2.626900 27.250237 5.926272 -11.760956 -10.619469 -18.181753 0.948032 36.190417 17.284590 -11.913500 -35.067380 -2.173115 -35.350704 13.968039 -9.089877 -11.250656 -5.175901 33.256206 -6.223908 -4.751888 -3.660793 3.142615 0.566080 -0.204920 0.216470 0.385120 -4.614019 42.211052 -3.131585 23.874177 54.168753 3.975184 -64.904569 68.155227 -43.448610 3.072742 0.157559 0.031670 0.659590 -0.068210 0.186330 
-0.367110 17.179480 -3.197170 2.706979 16.079275 -3.193115 -13.929162 10.034598 2.354429 -2.927885 -2.286247 -9.224721 -11.525062 5.553717 12.063155 -0.653266 3.603304 3.447502 0.923530 0.992370 0.152010 19.707818 -12.266589 3.808183 -19.069061 5.103553 -23.054616 28.517523 -15.813380 31.802579 -1.380429 -7.825228 1.336812 0.656020 0.306290 0.190340 -7.683373 6.330069 -8.862244 31.269697 -5.800180 24.662083 -26.831221 2.930394 27.284605 6.074690 -11.930525 -11.158722 -18.639616 0.559428 35.943034 17.835340 -12.307500 -35.318350 -3.027732 -35.841141 14.088034 -9.154268 -11.363879 -5.167669 33.545293 -3.286461 -4.119607 -3.704940 3.143787 0.576770 -0.211400 0.202520 0.377000 -4.189144 43.123352 -2.638085 22.032920 53.455424 3.399658 -70.768066 67.307024 -47.672296 3.616879 -0.389643 0.015980 0.658090 -0.048590 0.185030 
-0.366480 17.170580 -3.178000 2.889772 16.813615 -3.360935 -13.948158 10.039867 2.336451 -2.828401 -2.136023 -8.687164 -11.843279 5.645650 11.765950 -0.631100 3.676399 3.439720 0.883140 0.926640 0.130400 19.697005 -12.199203 3.827543 -19.674534 5.236161 -22.853160 29.186066 -16.067902 31.808837 -1.392552 -7.916952 1.315655 0.615820 0.319270 0.183540 -7.654619 6.212692 -8.891142 30.887462 -5.730655 24.744787 -26.912307 3.142004 27.266517 6.138549 -12.108779 -11.667259 -19.118229 0.177474 35.733576 18.452520 -12.695470 -35.660720 -3.817389 -36.243819 14.160149 -9.369712 -11.306928 -5.353164 34.258047 -1.048175 -3.700258 -3.740926 3.143996 0.595650 -0.218510 0.188420 0.370260 -3.656755 44.020524 -2.113526 20.510877 52.637459 1.741475 -74.058148 67.613973 -50.438784 4.067937 -0.905209 -0.004820 0.660150 -0.029170 0.179260 
-0.368210 17.163270 -3.162560 3.056339 17.458951 -3.544863 -13.966008 10.050934 2.325003 -2.706219 -2.005130 -8.211473 -12.149240 5.735406 11.511493 -0.609460 3.743365 3.429672 0.846670 0.866990 0.112240 19.683962 -12.139138 3.845624 -20.177681 5.383882 -22.634588 29.765130 -16.274864 31.825202 -1.404526 -7.992589 1.299110 0.577830 0.326590 0.177370 -7.623518 6.103038 -8.918249 30.441750 -5.704779 25.012875 -26.957315 3.312016 27.164389 6.158292 -12.215052 -12.109852 -19.472943 -0.203326 35.625693 19.116080 -13.022930 -36.115120 -4.559635 -36.579329 14.205961 -9.504721 -11.099207 -5.633147 34.996626 0.461033 -3.430517 -3.764964 3.143188 0.616340 -0.228290 0.179090 0.362740 -3.084614 44.828678 -1.618394 19.293014 51.816851 -0.081660 -75.725525 68.321694 -51.900235 4.362551 -1.254030 -0.022700 0.659780 -0.012510 0.172800 
-0.371280 17.156220 -3.151220 3.200821 18.081796 -3.682481 -13.984782 10.069651 2.319641 -2.592519 -1.916253 -7.879957 -12.393701 5.816984 11.371607 -0.584711 3.800218 3.419716 0.815380 0.813250 0.098970 19.667377 -12.084572 3.861815 -20.561166 5.520204 -22.484274 30.213172 -16.442329 31.878124 -1.415341 -8.052009 1.284759 0.541410 0.329480 0.177480 -7.587728 5.994624 -8.936133 29.982451 -5.723344 25.343847 -26.995511 3.414871 26.924436 6.122941 -12.280025 -12.456975 -19.766450 -0.598591 35.565773 19.784750 -13.345540 -36.575750 -5.197180 -36.754813 14.191015 -9.643344 -10.906698 -5.890119 35.596070 1.369149 -3.270017 -3.775693 3.144975 0.634950 -0.238700 0.175880 0.356950 -2.531356 45.416829 -1.123481 18.480277 51.177123 -1.419575 -76.536591 68.956563 -52.574620 4.493581 -1.414016 -0.034190 0.652460 -0.001830 0.168680 
-0.375180 17.152210 -3.142890 3.285144 18.637095 -3.853513 -14.001561 10.092539 2.315515 -2.416881 -1.824750 -7.557446 -12.636548 5.892469 11.207898 -0.555172 3.846470 3.411651 0.783480 0.765020 0.083640 19.650685 -12.042864 3.869591 -20.772761 5.671239 -22.336819 30.484463 -16.568868 32.029133 -1.426228 -8.095757 1.276654 0.504360 0.329120 0.174850 -7.553419 5.905783 -8.946202 29.616439 -5.810871 25.768072 -27.101431 3.488070 26.635184 6.067500 -12.299301 -12.802914 -20.044847 -0.903185 35.676100 20.483010 -13.589960 -37.055500 -5.712758 -36.950271 14.219100 -9.674379 -10.609771 -6.116721 35.926800 1.943705 -3.151008 -3.779531 3.142663 0.651780 -0.251640 0.176130 0.351060 -2.060289 45.909718 -0.698634 17.857696 50.610241 -2.288604 -76.468215 69.317867 -52.367851 4.476585 -1.379287 -0.041960 0.645360 0.007650 0.166700 
-0.378960 17.148820 -3.137870 3.351467 19.142272 -4.017010 -14.018603 10.123754 2.317657 -2.274953 -1.754448 -7.301615 -12.796610 5.948158 11.081298 -0.527199 3.874970 3.407415 0.753200 0.721920 0.073210 19.630930 -12.010764 3.872766 -20.870500 5.810326 -22.242300 30.575367 -16.664474 32.278854 -1.432566 -8.126344 1.274144 0.468980 0.323660 0.168780 -7.515130 5.820256 -8.952681 29.251711 -5.914862 26.267932 -27.200434 3.527699 26.284258 6.015700 -12.254557 -13.118964 -20.217254 -1.171282 35.855843 21.064690 -13.758370 -37.495150 -6.174723 -37.106667 14.235586 -9.612049 -10.318992 -6.299487 36.056164 2.195232 -3.081863 -3.778366 3.135014 0.665500 -0.264300 0.176740 0.341140 -1.653785 46.274528 -0.310565 17.393994 50.140093 -2.916723 -76.132032 69.548113 -51.926093 4.404559 -1.273529 -0.047600 0.636810 0.014710 0.162530 
-0.383410 17.145880 -3.135310 3.416904 19.561221 -4.182066 -14.034375 10.158861 2.322773 -2.177247 -1.689374 -7.061116 -12.883402 5.989257 10.979525 -0.506132 3.899496 3.407022 0.717080 0.673610 0.057270 19.610780 -11.984949 3.875954 -20.914904 5.937531 -22.174993 30.601946 -16.750074 32.554036 -1.435366 -8.152494 1.277046 0.432380 0.324830 0.159850 -7.476997 5.737907 -8.963524 28.865084 -6.024080 26.870440 -27.272037 3.517797 25.888954 5.952298 -12.216703 -13.410935 -20.380764 -1.383335 36.066046 21.624820 -13.894490 -37.891760 -6.566372 -37.224608 14.252932 -9.572930 -10.013192 -6.461573 36.174603 2.266626 -3.053327 -3.779525 3.120691 0.680060 -0.272780 0.173170 0.331050 -1.285025 46.566099 0.041821 17.015142 49.773751 -3.557581 -76.189113 69.860342 -51.902625 4.393554 -1.234895 -0.058900 0.634970 0.026900 0.157480 
-0.387770 17.143610 -3.134970 3.407712 19.942517 -4.364518 -14.048797 10.195045 2.326532 -2.053124 -1.631606 -6.838720 -12.901915 6.000866 10.851201 -0.487719 3.912445 3.409496 0.688750 0.632510 0.048770 19.591211 -11.970077 3.872794 -20.825501 6.049539 -22.113707 30.512702 -16.797760 32.846316 -1.438181 -8.165676 1.279688 0.400240 0.322100 0.155050 -7.442107 5.671061 -8.969132 28.586095 -6.152971 27.449553 -27.332310 3.474758 25.518821 5.898320 -12.186029 -13.643140 -20.526339 -1.573172 36.248263 22.103680 -14.004490 -38.267670 -6.928920 -37.310034 14.255914 -9.473466 -9.786779 -6.584847 36.200516 2.186670 -3.055447 -3.775641 3.111573 0.693770 -0.282350 0.172980 0.321940 -0.947890 46.800158 0.323479 16.693913 49.474011 -4.148935 -76.440326 70.168372 -52.083808 4.412559 -1.239991 -0.066390 0.629230 0.034670 0.152240 
-0.391750 17.141320 -3.136080 3.401855 20.258117 -4.515291 -14.063816 10.230273 2.328685 -1.977788 -1.583772 -6.666507 -12.854985 6.000643 10.766132 -0.472975 3.919035 3.412550 0.666100 0.600380 0.041240 19.572674 -11.953888 3.867327 -20.705286 6.169465 -22.095165 30.367742 -16.815361 33.148046 -1.439153 -8.173836 1.280020 0.375770 0.321500 0.151670 -7.406433 5.601390 -8.964909 28.297498 -6.239676 27.919547 -27.296515 3.444543 25.256924 5.827172 -12.200690 -13.814488 -20.710171 -1.693453 36.339974 22.525340 -14.096670 -38.512460 -7.171408 -37.400440 14.268490 -9.537120 -9.628733 -6.728471 36.407255 2.211145 -3.063432 -3.774300 3.108254 0.702540 -0.290020 0.172700 0.315200 -0.669067 47.079108 0.514570 16.344301 49.121778 -4.618692 -76.315871 70.341855 -51.871665 4.379688 -1.193382 -0.071960 0.625170 0.041200 0.150050 
-0.394340 17.139950 -3.139440 3.336003 20.543193 -4.700025 -14.078401 10.268228 2.330391 -1.903554 -1.547698 -6.518110 -12.739797 5.991430 10.738911 -0.465123 3.919617 3.415229 0.645870 0.570620 0.036220 19.553117 -11.945995 3.859275 -20.513448 6.270854 -22.031949 30.192827 -16.811042 33.408173 -1.438554 -8.173191 1.285189 0.353610 0.317550 0.147120 -7.370066 5.543319 -8.956171 28.108453 -6.365779 28.424995 -27.297952 3.396055 24.985692 5.793410 -12.159620 -13.966180 -20.782621 -1.787341 36.437934 22.855060 -14.117400 -38.781710 -7.487928 -37.509227 14.308260 -9.440600 -9.385683 -6.849582 36.484032 2.034725 -3.102994 -3.770939 3.102444 0.713720 -0.297610 0.172280 0.307020 -0.389936 47.335870 0.627726 15.987924 48.769896 -5.056767 -76.217424 70.590079 -51.702957 4.333534 -1.135484 -0.078700 0.620510 0.047780 0.144050 
-0.396050 17.138720 -3.143410 3.287904 20.784793 -4.828180 -14.091351 10.299362 2.332995 -1.860720 -1.525372 -6.423863 -12.642425 5.978658 10.706389 -0.458532 3.918349 3.417796 0.630430 0.547050 0.033150 19.536833 -11.937743 3.850244 -20.338526 6.366152 -22.012998 29.988492 -16.783474 33.645446 -1.436136 -8.167333 1.288795 0.336130 0.315950 0.144990 -7.339383 5.492930 -8.943021 27.920664 -6.455935 28.809794 -27.294677 3.353260 24.756023 5.745209 -12.132752 -14.049879 -20.860219 -1.805928 36.511762 23.193270 -14.108150 -38.941850 -7.713911 -37.594984 14.346888 -9.446055 -9.201715 -6.982532 36.709099 1.955855 -3.138448 -3.769419 3.100081 0.722000 -0.303400 0.172140 0.300590 -0.162809 47.556329 0.667666 15.703635 48.452576 -5.291849 -75.710122 70.674570 -51.143534 4.231797 -1.019462 -0.083500 0.616280 0.052740 0.140430 
